# xmcd
#
# Track frame offsets: 
#        150
#        16295
#        34330
#        58085
#        80713
#        102855
#        124908
#        141978
#        165275
#        189720
#        209548
#        220690
#        238550
#        259885
#        292910
#
# Disc length: 4179 seconds
#
# Revision: 1
# Processed by: cddbd v1.4PL0 Copyright (c) Steve Scherf et al.
# Submitted via: ExactAudioCopy v0.90b2
#
DISCID=dd10510f
DTITLE=De-Phazz - Rare tracks and Remixes
DYEAR=2002
DGENRE=Jazz
TTITLE0=The Mambo Craze (extended version)
TTITLE1=Something Special (Phazz-a-delic Mix)
TTITLE2=Nameless Life (RaPoetry)
TTITLE3=Good Boy (feat B.Lahr) Live version
TTITLE4=Riddim Wize
TTITLE5=Hero Dead and Gone (Discotheque Mix)
TTITLE6=Drop Down Low
TTITLE7=Love Set U Going (Vs. Lahr) (Exclusive Breaking The Ice mix)
TTITLE8=Pressurized
TTITLE9=No Jive (Ripped Version)
TTITLE10=Downtown Tazacorte
TTITLE11=Something Special (Duet with Karl Frierson)
TTITLE12=Plastic Love Memory (no. Nine)
TTITLE13=Good Boy (feat B.Lahr) (ManMachineMan Remix)
TTITLE14=Jazz Music (strings)
EXTD=YEAR: 2002
EXTT0=
EXTT1=
EXTT2=
EXTT3=
EXTT4=
EXTT5=
EXTT6=
EXTT7=
EXTT8=
EXTT9=
EXTT10=
EXTT11=
EXTT12=
EXTT13=
EXTT14=
PLAYORDER=
